<svg width="251" height="251" viewBox="0 0 251 251" fill="none" xmlns="http://www.w3.org/2000/svg">
<g clip-path="url(#clip0_44_2)">
<rect width="251" height="251" rx="60" fill="#FFE4E4"/>
<path d="M129.525 31.0584C131.048 31.719 131.048 31.719 132.631 32.6559C133.228 33.0036 133.824 33.3513 134.438 33.7095C135.083 34.0947 135.728 34.4799 136.373 34.8651C137.049 35.2624 137.727 35.659 138.404 36.0548C139.812 36.8775 141.217 37.7034 142.621 38.5317C145.831 40.4219 149.069 42.2634 152.305 44.1101C153.57 44.8347 154.836 45.56 156.101 46.2854C156.734 46.648 157.367 47.0105 157.999 47.373C176.982 58.2495 176.982 58.2495 177.931 58.7932C178.564 59.1561 179.198 59.5189 179.831 59.8818C181.404 60.7831 182.977 61.6848 184.55 62.5869C187.5 64.2788 190.452 65.968 193.409 67.6477C194.798 68.4365 196.185 69.2269 197.573 70.0175C198.231 70.3919 198.89 70.7656 199.549 71.1386C208.985 76.4774 208.985 76.4774 209.795 78.9147C209.848 80.1637 209.868 81.4142 209.871 82.6643C209.873 83.2398 209.873 83.2398 209.876 83.8269C209.881 85.1156 209.881 86.4044 209.882 87.6931C209.885 88.6159 209.887 89.5386 209.89 90.4613C209.898 92.9703 209.901 95.4793 209.903 97.9883C209.905 99.5553 209.907 101.122 209.91 102.689C209.917 107.59 209.922 112.491 209.924 117.392C209.927 123.053 209.936 128.714 209.952 134.374C209.964 138.748 209.969 143.122 209.97 147.495C209.971 150.109 209.974 152.722 209.983 155.335C209.992 157.793 209.994 160.25 209.989 162.708C209.988 163.61 209.991 164.512 209.996 165.414C210.003 166.646 210 167.877 209.994 169.108C209.995 169.797 209.996 170.487 209.997 171.197C209.777 173.156 209.352 174.157 208.168 175.715C206.921 176.588 205.73 177.328 204.405 178.06C204.008 178.287 203.61 178.514 203.2 178.748C202.295 179.265 201.387 179.778 200.479 180.289C198.812 181.23 197.153 182.181 195.494 183.135C192.921 184.615 190.345 186.091 187.768 187.564C184.214 189.595 180.663 191.629 177.112 193.664C175.532 194.57 173.952 195.475 172.372 196.38C171.739 196.743 171.106 197.105 170.474 197.468C166.677 199.643 166.677 199.643 165.728 200.187C165.095 200.55 164.462 200.912 163.829 201.275C162.252 202.179 160.675 203.082 159.098 203.985C155.518 206.036 151.938 208.088 148.359 210.142C146.729 211.078 145.098 212.012 143.465 212.943C140.784 214.474 138.106 216.008 135.455 217.591C135.058 217.826 134.66 218.06 134.25 218.301C133.553 218.712 132.86 219.13 132.171 219.555C129.914 220.874 128.314 221.243 125.729 220.852C123.837 220.023 122.103 218.967 120.339 217.895C119.228 217.242 118.116 216.592 117.002 215.943C116.403 215.593 115.803 215.243 115.185 214.883C111.702 212.879 108.131 211.033 104.577 209.16C99.0644 206.248 93.6044 203.268 88.1978 200.161C83.3945 197.417 78.5097 194.835 73.6203 192.25C68.303 189.436 63.038 186.549 57.8198 183.553C54.3102 181.542 50.7639 179.617 47.1597 177.782C43.0982 175.682 43.0982 175.682 42.2052 172.996C42.1516 171.747 42.1319 170.496 42.129 169.246C42.1274 168.863 42.1258 168.479 42.1241 168.084C42.1194 166.795 42.1186 165.506 42.1178 164.217C42.1153 163.295 42.1125 162.372 42.1096 161.449C42.1025 158.94 42.099 156.431 42.0966 153.922C42.095 152.355 42.0928 150.788 42.0904 149.221C42.083 144.32 42.0777 139.419 42.0756 134.518C42.0732 128.857 42.0637 123.197 42.0479 117.536C42.0362 113.163 42.0308 108.789 42.03 104.415C42.0295 101.802 42.0262 99.1889 42.0166 96.5758C42.0076 94.1181 42.0065 91.6605 42.0112 89.2028C42.0116 88.3007 42.0093 87.3985 42.0039 86.4965C41.997 85.265 42.0002 84.0339 42.0059 82.8024C42.0051 82.1132 42.0043 81.4241 42.0035 80.714C42.2219 78.7655 42.6674 77.7525 43.8323 76.1956C45.0139 75.3501 45.0139 75.3501 46.4 74.6321C46.9174 74.3585 47.4347 74.085 47.9678 73.8031C48.5271 73.5159 49.0864 73.2286 49.6626 72.9327C50.8581 72.3021 52.053 71.6705 53.2473 71.0378C53.8531 70.7185 54.4589 70.3992 55.0831 70.0702C57.6911 68.6756 60.2519 67.2027 62.8149 65.727C68.1954 62.6469 73.6554 59.732 79.1346 56.8342C83.7686 54.382 88.3692 51.889 92.916 49.2764C98.6275 45.995 104.431 42.9007 110.255 39.8266C113.417 38.1559 116.571 36.4821 119.672 34.6994C120.121 34.4413 120.571 34.1831 121.034 33.917C121.826 33.4582 122.613 32.9936 123.397 32.5216C125.584 31.2521 127.016 30.8321 129.525 31.0584ZM126.814 42.4786C125.876 43.4769 125.003 44.4802 124.136 45.5376C123.871 45.8556 123.606 46.1736 123.334 46.5012C121.224 49.051 119.188 51.6559 117.162 54.2725C115.085 56.9392 112.906 59.5065 110.697 62.0635C108.724 64.3511 106.816 66.6807 104.954 69.0601C104.124 70.1007 103.259 71.0906 102.373 72.0829C101.853 72.7728 101.853 72.7728 101.323 73.4765C101.73 75.3056 101.73 75.3056 103.727 76.1794C104.564 76.5913 105.405 76.9971 106.248 77.398C106.7 77.6177 107.151 77.8375 107.616 78.0639C109.097 78.7835 110.583 79.495 112.068 80.2063C113.098 80.7041 114.127 81.2022 115.156 81.7007C121.221 84.6322 127.312 87.5054 133.433 90.3177C140.288 93.4824 147.052 96.8359 153.819 100.184C158.502 102.495 163.17 104.739 168.033 106.65C167.382 104.925 166.677 103.377 165.686 101.825C165.309 101.232 165.309 101.232 164.925 100.627C164.653 100.203 164.381 99.7788 164.101 99.342C163.814 98.8911 163.527 98.4402 163.232 97.9757C162.618 97.0106 162.003 96.0462 161.388 95.0823C160.139 93.1262 158.897 91.1659 157.655 89.2058C156.375 87.1882 155.094 85.172 153.814 83.1556C152.225 80.6548 150.638 78.1533 149.05 75.6518C148.418 74.6548 147.785 73.6578 147.152 72.6608C143.356 66.6787 143.356 66.6787 142.405 65.1811C141.777 64.1911 141.148 63.2012 140.52 62.2113C138.87 59.6111 137.22 57.0104 135.572 54.4087C135.229 53.8683 134.887 53.3278 134.534 52.7709C133.879 51.7387 133.226 50.7063 132.572 49.6737C131.994 48.7613 131.414 47.8499 130.832 46.9397C130.353 46.1892 129.878 45.4361 129.409 44.6794C128.934 43.9271 128.421 43.199 127.898 42.4786C127.54 42.4786 127.182 42.4786 126.814 42.4786ZM140.373 46.8292C141.239 49.3438 142.578 51.3934 144.034 53.593C144.576 54.4226 145.117 55.2525 145.658 56.0827C145.946 56.5226 146.233 56.9625 146.529 57.4157C148.022 59.7149 149.488 62.0308 150.954 64.3468C151.009 64.433 151.064 64.5192 151.118 64.6054C151.437 65.1087 151.756 65.612 152.085 66.1305C152.737 67.1596 153.389 68.1888 154.041 69.2181C155.505 71.5285 156.971 73.8377 158.437 76.1469C158.562 76.3444 158.687 76.5419 158.813 76.7394C159.446 77.7364 160.078 78.7334 160.711 79.7304C161.024 80.224 161.338 80.7175 161.66 81.226C164.508 85.7125 164.508 85.7125 165.458 87.2102C166.086 88.1999 166.715 89.1893 167.343 90.1787C168.997 92.7832 170.647 95.3904 172.291 98.0016C172.634 98.5445 172.977 99.0875 173.33 99.6469C173.985 100.686 174.639 101.725 175.291 102.765C176.746 105.068 178.197 107.289 179.965 109.369C183.262 104.918 186.498 100.438 189.609 95.8543C190.946 93.8879 192.299 91.9363 193.681 90.0015C193.977 89.586 194.273 89.1706 194.578 88.7425C195.149 87.943 195.723 87.1451 196.299 86.349C196.688 85.8036 196.688 85.8036 197.085 85.2473C197.314 84.9296 197.543 84.6119 197.779 84.2846C198.514 83.0877 199.001 81.8608 199.49 80.5462C199.109 80.3282 198.729 80.1101 198.337 79.8855C182.339 70.7191 182.339 70.7191 181.388 70.1741C180.45 69.637 179.513 69.0998 178.575 68.5627C177.324 67.8457 176.072 67.1285 174.821 66.4113C171.953 64.7677 169.085 63.1246 166.215 61.4846C164.606 60.5653 162.998 59.6454 161.389 58.7253C160.768 58.3699 160.146 58.0145 159.506 57.6483C154.59 54.8312 149.696 51.9761 144.818 49.0935C144.311 48.7949 143.804 48.4964 143.281 48.1888C142.836 47.9252 142.39 47.6616 141.93 47.39C141.029 46.7855 141.029 46.7855 140.373 46.8292ZM106.231 51.2032C105.906 51.377 105.58 51.5508 105.245 51.7299C104.173 52.3032 103.104 52.88 102.034 53.4571C101.289 53.8575 100.543 54.2578 99.7974 54.6582C94.9664 57.2585 90.179 59.9286 85.4188 62.6571C78.8632 66.4011 72.1899 69.9299 65.5267 73.4765C65.5267 73.656 65.5267 73.8354 65.5267 74.0203C70.3918 74.0858 75.242 73.928 80.0987 73.6519C81.05 73.603 82.0019 73.5647 82.954 73.5372C88.8034 73.529 88.8034 73.529 93.8983 71.0693C95.2595 69.5776 96.4022 68.0826 97.526 66.4068C98.2088 65.5519 98.897 64.7012 99.5938 63.8576C100.106 63.2036 100.106 63.2036 100.628 62.5363C101.622 61.2766 102.628 60.0304 103.645 58.7891C103.96 58.4033 104.275 58.0175 104.6 57.62C105.228 56.8536 105.856 56.0882 106.486 55.3239C108 53.4692 109.384 51.6561 110.543 49.5483C108.858 49.5483 107.709 50.4119 106.231 51.2032ZM76.2786 81.0029C75.6667 81.0499 75.0548 81.0969 74.4244 81.1453C73.1404 81.2444 71.8564 81.3446 70.5726 81.4457C68.608 81.6001 66.6431 81.7505 64.6782 81.9004C63.4265 81.9975 62.1747 82.0949 60.923 82.1925C60.0442 82.2597 60.0442 82.2597 59.1476 82.3282C58.6006 82.3717 58.0537 82.4152 57.4902 82.46C57.0116 82.4975 56.5329 82.5349 56.0398 82.5735C54.6585 82.7237 53.3251 82.9713 51.9677 83.2653C52.9064 88.1012 54.4395 92.744 55.9295 97.4301C56.2147 98.3328 56.4998 99.2355 56.7847 100.138C57.5328 102.507 58.2834 104.875 59.0345 107.243C59.9412 110.103 60.8453 112.964 61.7496 115.825C62.4545 118.054 63.1598 120.284 63.8665 122.513C65.3479 127.188 66.8107 131.868 68.2385 136.56C68.5965 136.56 68.9544 136.56 69.3232 136.56C69.4571 136.175 69.5909 135.791 69.7288 135.395C71.0231 131.675 72.3177 127.956 73.6125 124.238C74.2986 122.267 74.9845 120.296 75.6702 118.326C81.0682 102.81 81.0682 102.81 83.6174 95.6011C83.8706 94.8841 83.8706 94.8841 84.1289 94.1525C84.8841 92.0135 85.6417 89.8753 86.4038 87.7387C86.6636 87.0038 86.9234 86.269 87.183 85.534C87.5122 84.6095 87.5122 84.6095 87.848 83.6662C88.3858 82.1774 88.3858 82.1774 88.3059 80.5462C84.2733 80.4783 80.2978 80.6852 76.2786 81.0029ZM96.4413 81.6338C96.2682 82.1396 96.2682 82.1396 96.0916 82.6556C94.7171 86.67 93.3409 90.6838 91.9633 94.6971C91.7178 95.4123 91.4724 96.1274 91.227 96.8427C88.468 104.882 85.6984 112.918 82.859 120.929C82.6465 121.529 82.4341 122.128 82.2152 122.746C81.2133 125.569 80.2077 128.392 79.1982 131.213C78.8372 132.226 78.4763 133.24 78.1154 134.253C77.9538 134.701 77.7921 135.15 77.6255 135.612C76.6843 138.259 75.9269 140.892 75.2892 143.63C78.4971 143.272 81.4537 142.455 84.5372 141.515C85.0734 141.353 85.6097 141.192 86.1622 141.026C87.9411 140.491 89.7188 139.952 91.4965 139.413C92.7597 139.032 94.023 138.651 95.2864 138.271C98.634 137.262 101.981 136.249 105.327 135.236C108.389 134.31 111.452 133.386 114.516 132.463C114.743 132.394 114.97 132.326 115.197 132.257C119.108 131.078 123.018 129.897 126.928 128.713C132.955 126.887 138.984 125.066 145.019 123.265C147.702 122.465 150.385 121.66 153.068 120.856C153.083 120.852 153.098 120.847 153.113 120.843C154.395 120.459 155.678 120.077 156.962 119.696C158.727 119.173 160.49 118.644 162.253 118.115C162.779 117.96 163.306 117.805 163.848 117.646C164.323 117.502 164.799 117.358 165.288 117.21C165.911 117.025 165.911 117.025 166.545 116.836C167.601 116.513 167.601 116.513 168.033 115.351C160.041 111.444 152.046 107.55 143.966 103.829C137.567 100.878 131.239 97.7936 124.915 94.6855C118.284 91.4275 111.645 88.1904 104.95 85.0667C104.329 84.7761 103.709 84.4855 103.07 84.1862C102.225 83.7945 102.225 83.7945 101.363 83.3949C100.638 83.0587 100.638 83.0587 99.8982 82.7158C98.7431 82.233 97.6549 81.9218 96.4413 81.6338ZM201.117 92.5103C200.654 93.1212 200.216 93.7516 199.789 94.3881C199.511 94.7988 199.233 95.2094 198.947 95.6325C198.645 96.0827 198.344 96.5329 198.032 96.9968C195.072 101.38 192.065 105.726 189.007 110.041C188.416 110.88 187.834 111.727 187.263 112.581C186.473 113.719 186.473 113.719 185.662 114.619C184.803 115.581 184.803 115.581 184.304 117.526C185.016 120.148 186.254 122.497 187.49 124.902C187.843 125.618 188.195 126.335 188.545 127.053C189.278 128.553 190.019 130.05 190.764 131.545C192.432 134.904 194.001 138.309 195.573 141.714C196.057 142.759 196.543 143.803 197.031 144.847C198.44 147.867 199.838 150.884 201.117 153.962C201.296 153.962 201.475 153.962 201.659 153.962C201.659 133.683 201.659 113.404 201.659 92.5103C201.48 92.5103 201.301 92.5103 201.117 92.5103ZM50.3406 106.65C50.3406 125.134 50.3406 143.619 50.3406 162.663C53.396 160.037 56.3985 157.409 59.3235 154.642C59.781 154.235 60.2386 153.829 60.7101 153.41C61.1369 153 61.5637 152.591 62.0035 152.169C62.394 151.808 62.7845 151.448 63.1869 151.076C65.2643 146.808 61.4979 139.775 60.0989 135.434C59.8326 134.601 59.5667 133.767 59.301 132.933C58.6063 130.757 57.9082 128.581 57.2092 126.405C56.4945 124.178 55.7831 121.95 55.0714 119.723C53.6785 115.364 52.282 111.006 50.883 106.65C50.704 106.65 50.525 106.65 50.3406 106.65ZM165.379 124.933C164.624 125.162 164.624 125.162 163.854 125.395C162.168 125.906 160.483 126.419 158.798 126.932C157.608 127.294 156.419 127.654 155.229 128.015C152.692 128.785 150.155 129.555 147.618 130.327C141.699 132.126 135.779 133.921 129.858 135.716C128.542 136.115 127.226 136.514 125.91 136.913C114.263 140.445 102.61 143.953 90.9499 147.436C90.1748 147.668 89.3997 147.899 88.6246 148.131C84.5415 149.351 80.458 150.57 76.3739 151.787C77.0839 153.649 77.708 154.963 79.0921 156.403C79.4118 156.74 79.7316 157.077 80.061 157.424C80.3991 157.774 80.7373 158.123 81.0857 158.483C81.7797 159.213 82.4732 159.944 83.1662 160.675C83.496 161.021 83.8258 161.368 84.1656 161.724C85.4731 163.11 86.7196 164.543 87.9606 165.988C89.0537 167.251 90.1708 168.492 91.2889 169.733C93.0591 171.7 94.8077 173.683 96.543 175.681C97.6736 176.971 98.8192 178.247 99.9667 179.522C101.737 181.489 103.485 183.472 105.221 185.47C106.351 186.76 107.497 188.036 108.644 189.311C110.415 191.277 112.163 193.261 113.899 195.259C115.029 196.549 116.175 197.824 117.322 199.099C122.627 204.998 122.627 204.998 125.085 208.072C125.476 208.521 125.868 208.97 126.271 209.432C126.629 209.432 126.987 209.432 127.356 209.432C131.398 201.683 135.417 193.922 139.422 186.153C139.68 185.653 139.68 185.653 139.943 185.143C140.114 184.81 140.286 184.477 140.463 184.134C143.187 178.849 145.92 173.569 148.652 168.288C149.915 165.847 151.177 163.406 152.439 160.966C153.071 159.743 153.704 158.52 154.336 157.298C155.932 154.212 157.527 151.126 159.122 148.04C159.442 147.422 159.761 146.804 160.09 146.167C160.724 144.94 161.358 143.714 161.991 142.487C163.552 139.466 165.12 136.449 166.703 133.439C167.159 132.57 167.159 132.57 167.624 131.683C168.201 130.585 168.779 129.487 169.36 128.391C169.741 127.664 169.741 127.664 170.13 126.922C170.355 126.497 170.579 126.072 170.81 125.634C171.363 124.622 171.363 124.622 171.287 123.508C169.261 123.508 167.307 124.344 165.379 124.933ZM179.423 126.227C175.637 132.644 172.274 139.259 168.914 145.907C167.849 148.011 166.783 150.115 165.715 152.218C165.454 152.733 165.192 153.249 164.923 153.78C163.017 157.529 161.076 161.258 159.114 164.979C157.118 168.766 155.158 172.57 153.208 176.381C152.222 178.305 151.235 180.228 150.247 182.152C150.052 182.531 149.857 182.911 149.657 183.302C147.892 186.737 146.119 190.167 144.339 193.593C144.091 194.07 143.844 194.547 143.589 195.038C142.044 198.006 140.448 200.941 138.814 203.86C138.122 205.016 138.122 205.016 138.203 206.169C140.125 205.438 141.896 204.585 143.688 203.577C144.492 203.126 144.492 203.126 145.312 202.666C145.886 202.341 146.459 202.017 147.05 201.682C147.952 201.175 147.952 201.175 148.871 200.656C153.474 198.055 158.04 195.393 162.596 192.711C167.017 190.115 171.482 187.603 175.959 185.105C180.543 182.542 185.082 179.906 189.604 177.234C193.043 175.206 196.519 173.26 200.032 171.364C199.731 169.035 199.181 167.208 198.143 165.106C197.862 164.533 197.582 163.959 197.294 163.368C196.989 162.754 196.685 162.14 196.371 161.508C195.726 160.185 195.081 158.861 194.437 157.537C194.189 157.028 194.189 157.028 193.936 156.509C192.182 152.906 190.492 149.274 188.812 145.635C188.523 145.008 188.233 144.382 187.935 143.736C185.251 137.912 182.599 132.074 179.965 126.227C179.786 126.227 179.607 126.227 179.423 126.227ZM66.8327 157.485C66.2145 158.105 65.5978 158.727 64.9822 159.349C64.658 159.675 64.3337 160.001 63.9996 160.337C62.9594 161.383 61.9211 162.431 60.8827 163.479C60.1798 164.187 59.4768 164.894 58.7737 165.601C57.046 167.34 55.3199 169.08 53.5948 170.821C54.3193 173 55.6164 173.404 57.5481 174.385C57.8984 174.569 58.2488 174.752 58.6097 174.941C59.3655 175.337 60.1225 175.73 60.8805 176.121C62.7212 177.071 64.5544 178.036 66.3877 179C66.5541 179.088 66.7205 179.175 66.8869 179.263C67.2865 179.472 67.6862 179.682 68.098 179.898C71.3483 181.608 74.5482 183.397 77.7298 185.232C83.4861 188.542 89.3397 191.658 95.2146 194.75C95.9195 195.122 96.6243 195.494 97.329 195.866C97.6679 196.045 98.0068 196.223 98.356 196.407C101.167 197.9 103.886 199.519 106.593 201.194C107.002 201.4 107.41 201.606 107.831 201.818C108.189 201.639 108.547 201.46 108.916 201.275C108.705 201.05 108.495 200.826 108.279 200.595C101.145 192.973 101.145 192.973 98.4137 189.793C97.3206 188.529 96.2035 187.289 95.0854 186.048C93.3152 184.081 91.5666 182.097 89.8313 180.1C88.7007 178.81 87.5551 177.534 86.4076 176.259C84.6374 174.292 82.8888 172.309 81.1535 170.311C80.0229 169.021 78.8773 167.745 77.7298 166.47C75.079 163.523 72.4394 160.57 69.9334 157.497C69.5531 157.048 69.1727 156.6 68.7809 156.137C67.9797 156.075 67.9797 156.075 66.8327 157.485Z" fill="black"/>
</g>
<defs>
<clipPath id="clip0_44_2">
<rect width="251" height="251" fill="white"/>
</clipPath>
</defs>
</svg>
