<svg width="207" height="233" viewBox="0 0 207 233" fill="none" stroke="#fff" xmlns="http://www.w3.org/2000/svg">
  <path d="M107.482 0.271493C109.352 1.0806 109.352 1.0806 111.296 2.22791C112.029 2.65375 112.761 3.07958 113.516 3.51832C114.307 3.99001 115.099 4.46177 115.891 4.9336C116.722 5.42015 117.554 5.90577 118.386 6.39051C120.114 7.39809 121.84 8.40962 123.564 9.424C127.506 11.739 131.482 13.9942 135.455 16.2559C137.009 17.1433 138.563 18.0316 140.117 18.9199C140.894 19.364 141.671 19.808 142.448 20.252C165.759 33.5723 165.759 33.5723 166.924 34.2382C167.702 34.6826 168.48 35.127 169.257 35.5713C171.189 36.6752 173.121 37.7794 175.052 38.8843C178.675 40.9563 182.3 43.0251 185.931 45.0822C187.636 46.0483 189.34 47.0163 191.044 47.9845C191.852 48.4431 192.661 48.9008 193.471 49.3575C205.058 55.8959 205.058 55.8959 206.053 58.8809C206.118 60.4105 206.143 61.9419 206.146 63.473C206.149 64.1778 206.149 64.1778 206.152 64.8968C206.158 66.4751 206.159 68.0534 206.16 69.6317C206.163 70.7618 206.166 71.8919 206.17 73.0219C206.179 76.0947 206.183 79.1674 206.186 82.2402C206.188 84.1593 206.191 86.0783 206.194 87.9974C206.203 93.9997 206.209 100.002 206.212 106.004C206.215 112.937 206.227 119.869 206.246 126.802C206.26 132.158 206.267 137.515 206.268 142.871C206.269 146.072 206.272 149.272 206.284 152.472C206.295 155.482 206.297 158.492 206.291 161.502C206.29 162.607 206.293 163.711 206.3 164.816C206.308 166.324 206.304 167.832 206.297 169.34C206.298 170.184 206.299 171.028 206.3 171.898C206.031 174.298 205.509 175.524 204.055 177.432C202.524 178.5 201.061 179.408 199.434 180.304C198.946 180.582 198.458 180.86 197.955 181.146C196.843 181.779 195.728 182.408 194.613 183.034C192.566 184.185 190.529 185.351 188.492 186.519C185.331 188.331 182.169 190.14 179.004 191.943C174.64 194.431 170.278 196.922 165.918 199.414C163.978 200.523 162.038 201.632 160.098 202.74C159.321 203.184 158.544 203.628 157.767 204.072C153.105 206.736 153.105 206.736 151.939 207.402C151.162 207.847 150.384 208.291 149.607 208.735C147.671 209.841 145.734 210.948 143.798 212.054C139.401 214.566 135.005 217.079 130.61 219.595C128.608 220.74 126.606 221.884 124.601 223.025C121.308 224.9 118.02 226.778 114.764 228.717C114.276 229.004 113.788 229.291 113.285 229.587C112.429 230.09 111.577 230.601 110.731 231.122C107.96 232.738 105.994 233.19 102.82 232.711C100.497 231.695 98.3677 230.402 96.2018 229.089C94.8376 228.29 93.4716 227.493 92.1042 226.699C91.3677 226.27 90.6312 225.842 89.8724 225.401C85.595 222.946 81.2104 220.686 76.8457 218.392C70.0766 214.825 63.3718 211.176 56.7326 207.371C50.8341 204.01 44.8356 200.848 38.8314 197.682C32.3018 194.236 25.8364 190.7 19.4285 187.031C15.1188 184.568 10.764 182.211 6.33797 179.963C1.35054 177.391 1.35054 177.391 0.253909 174.102C0.188148 172.572 0.163969 171.04 0.160373 169.509C0.158394 169.04 0.156416 168.57 0.154377 168.086C0.14859 166.507 0.147586 164.929 0.146592 163.351C0.14351 162.221 0.140163 161.091 0.136572 159.961C0.127829 156.888 0.123534 153.815 0.120576 150.742C0.118625 148.823 0.1159 146.904 0.112924 144.985C0.103816 138.983 0.0973745 132.98 0.0948037 126.978C0.0918182 120.045 0.0801186 113.113 0.0608301 106.18C0.0464432 100.824 0.039719 95.4676 0.0388281 90.1111C0.0381295 86.9108 0.0341868 83.7106 0.0223037 80.5103C0.0113449 77.5004 0.00987557 74.4906 0.0157286 71.4806C0.0162425 70.3758 0.0133372 69.271 0.00676514 68.1662C-0.00168061 66.658 0.00219599 65.1503 0.00915335 63.6421C0.0081766 62.7981 0.00720239 61.9541 0.00619604 61.0845C0.27445 58.6982 0.82153 57.4575 2.25196 55.5508C3.70301 54.5153 3.70301 54.5153 5.40512 53.636C6.04044 53.3009 6.67576 52.9659 7.33033 52.6207C8.01715 52.2689 8.70398 51.9171 9.41162 51.5547C10.8796 50.7825 12.3469 50.0089 13.8136 49.234C14.5575 48.843 15.3014 48.4519 16.0679 48.049C19.2705 46.3411 22.4152 44.5372 25.5625 42.73C32.1697 38.9578 38.8745 35.3879 45.603 31.839C51.2934 28.8358 56.943 25.7827 62.5264 22.583C69.5401 18.5643 76.6669 14.7747 83.819 11.0099C87.7017 8.96375 91.5742 6.91387 95.3823 4.73068C95.9345 4.41447 96.4867 4.09826 97.0556 3.77246C98.0271 3.21051 98.9947 2.6415 99.9567 2.06352C102.642 0.508689 104.401 -0.00568518 107.482 0.271493ZM104.152 14.2578C103.001 15.4804 101.929 16.7091 100.864 18.0042C100.539 18.3936 100.214 18.783 99.879 19.1842C97.2884 22.3069 94.7881 25.4972 92.3 28.7017C89.7499 31.9676 87.0742 35.1117 84.3618 38.2433C81.939 41.0448 79.596 43.8979 77.3088 46.8119C76.2902 48.0864 75.2276 49.2987 74.14 50.514C73.5013 51.3588 73.5013 51.3588 72.8496 52.2207C73.3501 54.4608 73.3501 54.4608 75.802 55.531C76.8307 56.0354 77.8631 56.5323 78.8984 57.0233C79.4526 57.2925 80.0067 57.5616 80.5777 57.8389C82.397 58.7202 84.2209 59.5915 86.0451 60.4627C87.3092 61.0723 88.5732 61.6824 89.8369 62.2929C97.285 65.883 104.764 69.4018 112.281 72.8461C120.699 76.7218 129.005 80.8288 137.315 84.9296C143.066 87.7599 148.798 90.5083 154.77 92.8477C153.97 90.7359 153.104 88.8403 151.887 86.9394C151.425 86.2127 151.425 86.2127 150.953 85.4713C150.619 84.9521 150.285 84.433 149.941 83.8981C149.589 83.3459 149.237 82.7937 148.874 82.2247C148.12 81.0428 147.365 79.8617 146.609 78.6812C145.076 76.2856 143.55 73.8848 142.025 71.4843C140.454 69.0134 138.881 66.5441 137.308 64.0747C135.357 61.012 133.408 57.9483 131.459 54.8848C130.682 53.6637 129.905 52.4427 129.128 51.2217C124.466 43.8955 124.466 43.8955 123.299 42.0614C122.527 40.849 121.756 39.6366 120.984 38.4243C118.957 35.2399 116.931 32.0547 114.907 28.8685C114.487 28.2066 114.066 27.5447 113.633 26.8627C112.829 25.5985 112.026 24.3341 111.224 23.0695C110.513 21.9522 109.801 20.836 109.087 19.7212C108.499 18.8021 107.916 17.8798 107.34 16.9531C106.756 16.0318 106.126 15.1401 105.484 14.2578C105.045 14.2578 104.605 14.2578 104.152 14.2578ZM120.803 19.5859C121.867 22.6655 123.511 25.1757 125.298 27.8695C125.964 28.8855 126.629 29.9019 127.294 30.9186C127.647 31.4573 127.999 31.9961 128.363 32.5511C130.264 35.4718 132.13 38.4144 133.998 41.3563C134.39 41.9727 134.782 42.5891 135.185 43.2241C135.986 44.4845 136.787 45.7449 137.587 47.0054C139.539 50.077 141.493 53.1468 143.447 56.2168C144.224 57.4378 145.001 58.6589 145.778 59.8799C146.163 60.4843 146.548 61.0887 146.944 61.7114C150.44 67.2061 150.44 67.2061 151.608 69.0404C152.379 70.2523 153.151 71.4642 153.922 72.6758C155.954 75.8656 157.98 79.0586 159.999 82.2565C160.419 82.9214 160.84 83.5863 161.274 84.2714C162.078 85.5435 162.881 86.8165 163.683 88.0906C165.469 90.9108 167.251 93.631 169.422 96.1777C173.47 90.7274 177.445 85.2399 181.265 79.6267C182.906 77.2185 184.568 74.8283 186.265 72.4587C186.628 71.9499 186.992 71.4412 187.367 70.917C188.068 69.9378 188.773 68.9605 189.48 67.9856C189.958 67.3177 189.958 67.3177 190.446 66.6363C190.727 66.2472 191.008 65.8582 191.298 65.4573C192.2 63.9914 192.798 62.489 193.398 60.8789C192.931 60.6119 192.464 60.3449 191.983 60.0698C172.337 48.8438 172.337 48.8438 171.169 48.1763C170.018 47.5185 168.866 46.8607 167.715 46.2028C166.178 45.3247 164.642 44.4464 163.105 43.568C159.583 41.5551 156.061 39.5428 152.537 37.5343C150.561 36.4084 148.586 35.2818 146.611 34.155C145.848 33.7198 145.085 33.2845 144.298 32.836C138.261 29.3859 132.252 25.8894 126.262 22.359C125.639 21.9933 125.016 21.6277 124.375 21.251C123.827 20.9282 123.28 20.6054 122.716 20.2728C121.609 19.5324 121.609 19.5324 120.803 19.5859ZM78.8776 24.9427C78.4778 25.1556 78.078 25.3685 77.6661 25.5878C76.3504 26.2898 75.037 26.9962 73.7238 27.703C72.8081 28.1934 71.8924 28.6837 70.9768 29.1741C65.0443 32.3586 59.1655 35.6286 53.3199 38.9703C45.2697 43.5555 37.0749 47.8773 28.8926 52.2207C28.8926 52.4405 28.8926 52.6603 28.8926 52.8867C34.8668 52.967 40.8229 52.7736 46.7869 52.4355C47.9551 52.3756 49.124 52.3287 50.2932 52.295C57.4761 52.285 57.4761 52.285 63.7327 49.2726C65.4042 47.4457 66.8074 45.6148 68.1875 43.5625C69.026 42.5155 69.8711 41.4736 70.7267 40.4406C71.3551 39.6395 71.3551 39.6395 71.9963 38.8224C73.2171 37.2796 74.4524 35.7533 75.701 34.2331C76.0884 33.7606 76.4757 33.2882 76.8748 32.8014C77.6452 31.8628 78.4171 30.9254 79.1906 29.9894C81.05 27.7179 82.7489 25.4973 84.1719 22.916C82.1035 22.916 80.6917 23.9737 78.8776 24.9427ZM42.0958 61.4383C41.3444 61.4958 40.593 61.5534 39.8189 61.6127C38.2421 61.7341 36.6654 61.8567 35.0888 61.9805C32.6764 62.1696 30.2635 62.3538 27.8506 62.5374C26.3135 62.6564 24.7764 62.7756 23.2393 62.8952C22.16 62.9774 22.16 62.9774 21.059 63.0613C20.3874 63.1146 19.7158 63.1679 19.0238 63.2228C18.436 63.2687 17.8483 63.3145 17.2427 63.3617C15.5465 63.5458 13.9091 63.849 12.2422 64.209C13.3949 70.1315 15.2776 75.8176 17.1072 81.5566C17.4575 82.6621 17.8076 83.7676 18.1575 84.8732C19.0761 87.7743 19.9978 90.6744 20.9201 93.5743C22.0337 97.0769 23.1438 100.581 24.2543 104.084C25.1199 106.815 25.986 109.546 26.8539 112.276C28.673 118.001 30.4693 123.732 32.2227 129.479C32.6622 129.479 33.1018 129.479 33.5547 129.479C33.719 129.008 33.8834 128.537 34.0527 128.051C35.6421 123.497 37.2319 118.942 38.8219 114.388C39.6644 111.974 40.5067 109.561 41.3487 107.147C47.9774 88.1458 47.9774 88.1458 51.1078 79.3166C51.4187 78.4384 51.4187 78.4384 51.7359 77.5425C52.6633 74.9228 53.5936 72.3042 54.5295 69.6875C54.8486 68.7876 55.1676 67.8876 55.4864 66.9875C55.8906 65.8552 55.8906 65.8552 56.303 64.7C56.9634 62.8767 56.9634 62.8767 56.8652 60.8789C51.9132 60.7958 47.0314 61.0492 42.0958 61.4383ZM66.8555 62.2109C66.6429 62.8304 66.6429 62.8304 66.426 63.4623C64.7382 68.3787 63.0481 73.2944 61.3565 78.2094C61.0551 79.0853 60.7537 79.9612 60.4523 80.8371C57.0643 90.6833 53.6633 100.524 50.1765 110.336C49.9156 111.07 49.6547 111.804 49.3859 112.56C48.1555 116.019 46.9207 119.475 45.681 122.93C45.2378 124.171 44.7946 125.412 44.3514 126.653C44.1529 127.202 43.9544 127.752 43.7499 128.317C42.594 131.56 41.6639 134.784 40.8809 138.137C44.8201 137.699 48.4508 136.698 52.2373 135.547C52.8958 135.349 53.5544 135.152 54.2329 134.949C56.4173 134.293 58.6003 133.633 60.7833 132.973C62.3345 132.506 63.8858 132.04 65.4372 131.574C69.548 130.338 73.6576 129.098 77.7669 127.858C81.8064 126.639 85.8471 125.424 89.8876 124.209C94.6899 122.764 99.4918 121.319 104.292 119.869C111.694 117.633 119.097 115.402 126.508 113.197C129.822 112.211 133.135 111.22 136.447 110.23C138.022 109.76 139.598 109.292 141.174 108.826C143.341 108.185 145.507 107.538 147.672 106.889C148.318 106.699 148.964 106.51 149.63 106.315C150.214 106.139 150.798 105.963 151.399 105.781C152.163 105.554 152.163 105.554 152.943 105.323C154.239 104.928 154.239 104.928 154.77 103.504C144.955 98.7194 135.137 93.9507 125.215 89.3927C117.358 85.779 109.587 82.0017 101.821 78.1953C93.6779 74.2052 85.5258 70.2407 77.3036 66.4152C76.5421 66.0593 75.7805 65.7034 74.996 65.3368C73.958 64.8571 73.958 64.8571 72.899 64.3677C72.0088 63.956 72.0088 63.956 71.1005 63.536C69.682 62.9447 68.3457 62.5636 66.8555 62.2109ZM195.396 75.5313C194.828 76.2794 194.29 77.0515 193.765 77.8311C193.424 78.334 193.083 78.8369 192.732 79.355C192.361 79.9064 191.991 80.4578 191.609 81.0259C187.973 86.3936 184.281 91.7162 180.525 97.0005C179.799 98.0292 179.085 99.0659 178.384 100.112C177.414 101.506 177.414 101.506 176.418 102.607C175.363 103.786 175.363 103.786 174.75 106.168C175.625 109.379 177.145 112.256 178.663 115.201C179.097 116.078 179.528 116.956 179.958 117.835C180.858 119.673 181.768 121.506 182.683 123.337C184.731 127.451 186.657 131.621 188.589 135.791C189.183 137.071 189.78 138.35 190.379 139.628C192.109 143.326 193.825 147.022 195.396 150.791C195.616 150.791 195.836 150.791 196.062 150.791C196.062 125.955 196.062 101.12 196.062 75.5313C195.843 75.5313 195.623 75.5313 195.396 75.5313ZM10.2441 92.8477C10.2441 115.486 10.2441 138.123 10.2441 161.447C13.9961 158.231 17.6832 155.012 21.275 151.624C21.8369 151.126 22.3989 150.628 22.9778 150.115C23.5019 149.613 24.0261 149.112 24.5661 148.595C25.0456 148.153 25.5252 147.711 26.0193 147.256C28.5703 142.03 23.9453 133.417 22.2272 128.1C21.9003 127.079 21.5737 126.058 21.2474 125.037C20.3944 122.371 19.5371 119.707 18.6788 117.042C17.8011 114.315 16.9275 111.587 16.0536 108.858C14.3431 103.52 12.6281 98.1834 10.9102 92.8477C10.6904 92.8477 10.4706 92.8477 10.2441 92.8477ZM151.51 115.239C150.583 115.519 150.583 115.519 149.637 115.805C147.567 116.431 145.498 117.059 143.429 117.688C141.968 118.13 140.507 118.572 139.046 119.014C135.931 119.957 132.815 120.9 129.7 121.845C122.432 124.048 115.161 126.247 107.891 128.445C106.275 128.934 104.659 129.423 103.042 129.911C88.741 134.237 74.4311 138.533 60.1121 142.799C59.1603 143.082 58.2084 143.366 57.2566 143.65C52.2426 145.144 47.228 146.637 42.2129 148.127C43.0847 150.407 43.8511 152.017 45.5508 153.78C45.9434 154.193 46.336 154.606 46.7405 155.031C47.1558 155.459 47.5711 155.887 47.9989 156.327C48.8511 157.222 49.7027 158.117 50.5537 159.012C50.9587 159.436 51.3637 159.86 51.781 160.297C53.3866 161.994 54.9172 163.749 56.4412 165.519C57.7835 167.066 59.1553 168.585 60.5283 170.105C62.7021 172.514 64.8494 174.943 66.9803 177.39C68.3687 178.97 69.7755 180.532 71.1846 182.094C73.3584 184.503 75.5056 186.932 77.6366 189.378C79.025 190.958 80.4317 192.521 81.8408 194.082C84.0146 196.491 86.1619 198.92 88.2929 201.367C89.6812 202.946 91.088 204.509 92.4971 206.07C99.0117 213.294 99.0117 213.294 102.029 217.06C102.51 217.609 102.991 218.158 103.486 218.725C103.926 218.725 104.365 218.725 104.818 218.725C109.782 209.234 114.718 199.729 119.635 190.215C119.952 189.602 119.952 189.602 120.275 188.978C120.485 188.57 120.696 188.162 120.913 187.742C124.259 181.27 127.615 174.803 130.97 168.336C132.521 165.347 134.071 162.358 135.62 159.368C136.397 157.871 137.173 156.373 137.95 154.876C139.91 151.097 141.869 147.317 143.827 143.538C144.219 142.781 144.612 142.024 145.016 141.244C145.794 139.742 146.572 138.24 147.35 136.737C149.267 133.037 151.193 129.343 153.136 125.657C153.696 124.592 153.696 124.592 154.267 123.506C154.975 122.161 155.686 120.817 156.398 119.475C156.867 118.584 156.867 118.584 157.345 117.675C157.621 117.155 157.896 116.634 158.18 116.098C158.858 114.858 158.858 114.858 158.766 113.494C156.277 113.494 153.878 114.517 151.51 115.239ZM168.756 116.824C164.107 124.683 159.977 132.784 155.852 140.926C154.544 143.503 153.234 146.079 151.923 148.655C151.602 149.286 151.281 149.918 150.95 150.568C148.61 155.16 146.226 159.727 143.818 164.283C141.366 168.921 138.96 173.581 136.564 178.247C135.354 180.604 134.141 182.959 132.929 185.315C132.69 185.78 132.45 186.245 132.203 186.724C130.037 190.93 127.86 195.131 125.673 199.327C125.369 199.911 125.065 200.495 124.752 201.097C122.855 204.731 120.896 208.326 118.888 211.901C118.039 213.316 118.039 213.316 118.139 214.729C120.499 213.833 122.673 212.789 124.874 211.555C125.861 211.002 125.861 211.002 126.868 210.438C127.573 210.041 128.277 209.643 129.003 209.234C130.11 208.612 130.11 208.612 131.239 207.977C136.891 204.791 142.498 201.531 148.093 198.247C153.522 195.067 159.005 191.991 164.503 188.932C170.131 185.792 175.705 182.564 181.258 179.292C185.481 176.808 189.75 174.425 194.064 172.104C193.694 169.251 193.019 167.013 191.744 164.439C191.4 163.737 191.056 163.034 190.701 162.31C190.328 161.558 189.954 160.807 189.569 160.032C188.776 158.412 187.984 156.791 187.194 155.17C186.889 154.546 186.889 154.546 186.578 153.91C184.424 149.497 182.349 145.049 180.286 140.593C179.931 139.825 179.575 139.058 179.209 138.267C175.914 131.135 172.657 123.984 169.422 116.824C169.202 116.824 168.982 116.824 168.756 116.824ZM30.4963 155.106C29.7372 155.865 28.9798 156.626 28.224 157.389C27.8258 157.788 27.4276 158.187 27.0173 158.598C25.7399 159.879 24.4649 161.163 23.1898 162.446C22.3267 163.313 21.4634 164.179 20.5999 165.045C18.4783 167.174 16.3587 169.305 14.2402 171.438C15.13 174.107 16.7228 174.601 19.0949 175.803C19.5251 176.028 19.9553 176.253 20.3986 176.484C21.3267 176.969 22.2562 177.45 23.1871 177.929C25.6526 179.198 28.1072 180.488 30.5628 181.776C31.0536 182.033 31.5444 182.29 32.0501 182.555C36.0414 184.649 39.9709 186.839 43.8779 189.087C50.9466 193.141 58.1347 196.957 65.3491 200.743C66.2147 201.199 67.0802 201.655 67.9456 202.111C68.3617 202.329 68.7779 202.548 69.2067 202.773C72.6581 204.602 75.998 206.584 79.322 208.636C79.8235 208.888 80.3251 209.14 80.8418 209.4C81.2814 209.181 81.7209 208.961 82.1738 208.734C81.9158 208.46 81.6577 208.185 81.3919 207.902C72.6312 198.567 72.6312 198.567 69.2776 194.673C67.9353 193.125 66.5634 191.606 65.1904 190.086C63.0166 187.677 60.8694 185.248 58.7384 182.801C57.35 181.222 55.9433 179.659 54.5342 178.098C52.3604 175.689 50.2131 173.26 48.0822 170.813C46.6938 169.233 45.287 167.671 43.8779 166.109C40.6227 162.5 37.3813 158.883 34.304 155.12C33.8369 154.571 33.3699 154.021 32.8887 153.455C31.9048 153.378 31.9048 153.378 30.4963 155.106Z" fill="black"/>
</svg>
